<svg viewBox="0 0 48 48" xmlns="http://www.w3.org/2000/svg" xmlns:xlink="http://www.w3.org/1999/xlink" width="48.000000" height="48.000000" fill="none" customFrame="#000000">
	<defs>
		<g id="pixso_custom_effect_0">
			<effect x="0.000000" y="4.000000" visibility="visible" fill="rgb(0,0,0)" fill-opacity="0.25" effectType="dropShadow" stdDeviation="4" radius="0" />
		</g>
		<filter id="filter_0" width="48.000000" height="48.000000" x="0.000000" y="0.000000" filterUnits="userSpaceOnUse" customEffect="url(#pixso_custom_effect_0)" color-interpolation-filters="sRGB">
			<feFlood flood-opacity="0" result="BackgroundImageFix" />
			<feOffset dx="0.000000" dy="4.000000" in="SourceAlpha" />
			<feGaussianBlur stdDeviation="1.33333337" />
			<feColorMatrix type="matrix" values="0 0 0 0 0 0 0 0 0 0 0 0 0 0 0 0 0 0 0.25 0 " />
			<feBlend result="effect_dropShadow_1" in2="BackgroundImageFix" mode="normal" />
			<feBlend result="shape" in="SourceGraphic" in2="effect_dropShadow_1" mode="normal" />
		</filter>
	</defs>
	<g filter="url(#filter_0)">
		<rect id="Pause" width="48.000000" height="48.000000" x="0.000000" y="0.000000" fill="rgb(0,0,0)" fill-opacity="0" />
	</g>
	<rect id="bound" width="48.000000" height="48.000000" x="0.000000" y="0.000000" fill="rgb(215.985,215.985,215.985)" fill-opacity="0" />
	<rect id="bound" width="48.000000" height="48.000000" x="0.000000" y="0.000000" stroke="rgb(150.96,150.96,150.96)" stroke-opacity="0" stroke-width="0" />
	<path id="Combined Shape" d="M22 13C22 12.4477 21.5523 12 21 12L15 12C14.4477 12 14 12.4477 14 13L14 35C14 35.5523 14.4477 36 15 36L21 36C21.5523 36 22 35.5523 22 35L22 13ZM34 13C34 12.4477 33.5523 12 33 12L27 12C26.4477 12 26 12.4477 26 13L26 35C26 35.5523 26.4477 36 27 36L33 36C33.5523 36 34 35.5523 34 35L34 13Z" fill="rgb(172.598,172.598,172.598)" fill-rule="evenodd" />
</svg>
