<svg viewBox="0 0 48 48" xmlns="http://www.w3.org/2000/svg" xmlns:xlink="http://www.w3.org/1999/xlink" width="48.000000" height="48.000000" fill="none" customFrame="#000000">
	<rect id="Volume-full" width="48.000000" height="48.000000" x="0.000000" y="0.000000" fill="rgb(0,0,0)" fill-opacity="0" />
	<rect id="bound" width="48.000000" height="48.000000" x="0.000000" y="0.000000" fill="rgb(215.985,215.985,215.985)" fill-opacity="0" />
	<rect id="bound" width="48.000000" height="48.000000" x="0.000000" y="0.000000" stroke="rgb(150.96,150.96,150.96)" stroke-opacity="0" stroke-width="0" />
	<g style="mix-blend-mode:normal">
		<path id="Combined Shape" d="M31.5755 39.0768C31.9346 39.8234 32.831 40.1374 33.5775 39.7783C39.5923 36.8849 43.4999 30.7941 43.4999 23.9998C43.4999 17.2708 39.667 11.2282 33.7407 8.30096C32.998 7.93408 32.0984 8.23879 31.7316 8.98155C31.3647 9.72431 31.6694 10.6238 32.4122 10.9907C37.3244 13.4171 40.4999 18.4233 40.4999 23.9998C40.4999 29.6303 37.2624 34.6766 32.277 37.0748C31.5305 37.434 31.2164 38.3303 31.5755 39.0768ZM30.5898 31.7192C30.9941 32.4422 31.908 32.7006 32.6311 32.2963C35.6123 30.6291 37.5 27.4793 37.5 23.9999C37.5 20.5462 35.6402 17.416 32.6938 15.7389C31.9738 15.329 31.058 15.5805 30.6482 16.3004C30.2383 17.0204 30.4898 17.9363 31.2097 18.3461C33.2282 19.495 34.5 21.6356 34.5 23.9999C34.5 26.3817 33.209 28.5358 31.1668 29.6779C30.4438 30.0822 30.1854 30.9961 30.5898 31.7192Z" opacity="0.5" fill="rgb(172.598,172.598,172.598)" fill-rule="evenodd" />
	</g>
	<path id="Combined Shape" d="M24 39.5857L24 8.41411C24 7.52321 22.9229 7.07704 22.2929 7.70701L14 15.9999L6 15.9999C4.89543 15.9999 4 16.8953 4 17.9999L4 29.9999C4 31.1045 4.89543 31.9999 6 31.9999L14 31.9999L22.2929 40.2928C22.9229 40.9228 24 40.4766 24 39.5857Z" fill="rgb(172.598,172.598,172.598)" fill-rule="evenodd" />
</svg>
