<svg viewBox="0 0 20 20" xmlns="http://www.w3.org/2000/svg" xmlns:xlink="http://www.w3.org/1999/xlink" width="20.000000" height="20.000000" fill="none" customFrame="#000000">
	<g id="Group">
		<rect id="base" width="20.000000" height="20.000000" x="0.000000" y="0.000000" fill="rgb(196,196,196)" fill-opacity="0" />
		<g id="arrow_simple_1">
			<path id="arrow simple 1" d="M17.8338 9.33556L4.82325 9.33556L6.27584 7.89755C6.38011 7.79496 6.46292 7.67268 6.51945 7.53777C6.57597 7.40286 6.60507 7.25808 6.60507 7.11181C6.60507 6.96554 6.57597 6.82068 6.51945 6.68578C6.46292 6.55087 6.38011 6.42858 6.27584 6.326C6.06427 6.11712 5.77895 6 5.48164 6C5.18433 6 4.89898 6.11712 4.68742 6.326L1.31973 9.66114C1.22525 9.75643 1.14915 9.86825 1.09522 9.99112C1.0797 10.0276 1.06657 10.0652 1.05592 10.1034C1.02562 10.1918 1.00749 10.284 1.00204 10.3773C0.999321 10.4147 0.999321 10.4522 1.00204 10.4896C1.00547 10.6089 1.02861 10.7269 1.07052 10.8387C1.07261 10.8489 1.07524 10.8591 1.07838 10.869C1.13304 10.9905 1.20908 11.1011 1.30289 11.1957C1.31187 11.2058 1.31524 11.2192 1.32535 11.2293L4.69304 14.5645C4.90474 14.7731 5.19002 14.89 5.48724 14.89C5.78446 14.89 6.06975 14.7731 6.28146 14.5645C6.38572 14.4619 6.46854 14.3395 6.52507 14.2046C6.58159 14.0697 6.61069 13.9249 6.61069 13.7787C6.61069 13.6324 6.58159 13.4876 6.52507 13.3527C6.46854 13.2178 6.38572 13.0955 6.28146 12.9929L4.82885 11.5549L17.8338 11.5549C17.9846 11.5632 18.1356 11.5407 18.2775 11.4887C18.4193 11.4367 18.5491 11.3563 18.6588 11.2524C18.7686 11.1486 18.856 11.0234 18.9157 10.8846C18.9754 10.7458 19.0063 10.5963 19.0063 10.4452C19.0063 10.2941 18.9754 10.1446 18.9157 10.0058C18.856 9.86707 18.7686 9.74191 18.6588 9.63805C18.5491 9.5342 18.4193 9.45382 18.2775 9.40181C18.1356 9.3498 17.9846 9.32724 17.8338 9.33556Z" fill="rgb(29,32,40)" fill-rule="evenodd" />
		</g>
	</g>
</svg>
