<svg viewBox="0 0 20 20" xmlns="http://www.w3.org/2000/svg" xmlns:xlink="http://www.w3.org/1999/xlink" width="20.000000" height="20.000000" fill="none" customFrame="#000000">
	<g id="Group">
		<rect id="base" width="20.000000" height="20.000000" x="0.000000" y="0.000000" fill="rgb(196,196,196)" fill-opacity="0" transform="matrix(-1,-8.74228e-08,8.74228e-08,-1,20,20)" />
		<g id="arrow_simple_1">
			<path id="arrow simple 1" d="M16.8338 3.33556L3.82325 3.33556L5.27584 1.89755C5.38011 1.79496 5.46292 1.67268 5.51945 1.53777C5.57597 1.40286 5.60507 1.25808 5.60507 1.11181C5.60507 0.965535 5.57597 0.820684 5.51945 0.685775C5.46292 0.550866 5.38011 0.428584 5.27584 0.325998C5.06427 0.117115 4.77895 1.27621e-13 4.48164 0C4.18433 1.27621e-13 3.89898 0.117115 3.68742 0.325998L0.319727 3.66114C0.225253 3.75643 0.149148 3.86825 0.0952179 3.99112C0.0796974 4.02764 0.066569 4.06518 0.055924 4.10341C0.0256225 4.19185 0.00749059 4.28402 0.00203631 4.37734C-0.000678769 4.41471 -0.000678769 4.4522 0.00203631 4.48957C0.00546565 4.60892 0.0286083 4.72685 0.0705179 4.83866C0.0726093 4.84889 0.0752365 4.85905 0.0783801 4.86901C0.133038 4.99047 0.209081 5.10114 0.302889 5.19569C0.31187 5.2058 0.315242 5.21923 0.325346 5.22934L3.69304 8.56448C3.90474 8.7731 4.19002 8.89 4.48724 8.89C4.78446 8.89 5.06975 8.7731 5.28146 8.56448C5.38572 8.4619 5.46854 8.33955 5.52507 8.20464C5.58159 8.06973 5.61069 7.92494 5.61069 7.77867C5.61069 7.6324 5.58159 7.48762 5.52507 7.35271C5.46854 7.2178 5.38572 7.09545 5.28146 6.99287L3.82885 5.55485L16.8338 5.55485C16.9846 5.56317 17.1356 5.54068 17.2775 5.48867C17.4193 5.43666 17.5491 5.35628 17.6588 5.25243C17.7686 5.14857 17.856 5.02341 17.9157 4.88463C17.9754 4.74585 18.0063 4.59633 18.0063 4.44524C18.0063 4.29415 17.9754 4.14463 17.9157 4.00585C17.856 3.86707 17.7686 3.74191 17.6588 3.63805C17.5491 3.5342 17.4193 3.45382 17.2775 3.40181C17.1356 3.3498 16.9846 3.32724 16.8338 3.33556Z" fill="rgb(29,32,40)" fill-rule="evenodd" transform="matrix(-1,-8.74228e-08,8.74228e-08,-1,19,15)" />
		</g>
	</g>
</svg>
